<?xml version="1.0" standalone="no"?>
<!DOCTYPE svg PUBLIC "-//W3C//DTD SVG 20010904//EN"
 "http://www.w3.org/TR/2001/REC-SVG-20010904/DTD/svg10.dtd">
<svg version="1.0" xmlns="http://www.w3.org/2000/svg"
 width="1024.000000pt" height="1024.000000pt" viewBox="0 0 1024.000000 1024.000000"
 preserveAspectRatio="xMidYMid meet">
<metadata>
Created by potrace 1.11, written by Peter Selinger 2001-2013
</metadata>
<g transform="translate(0.000000,1024.000000) scale(0.100000,-0.100000)"
fill="#000000" stroke="none">
<path d="M8195 8997 c-58 -31 -206 -181 -295 -297 -14 -18 -37 -49 -52 -69
-15 -20 -31 -41 -35 -46 -5 -6 -28 -39 -52 -75 -25 -36 -50 -68 -55 -72 -6 -4
-7 -8 -3 -8 4 0 -10 -24 -31 -52 -40 -56 -70 -100 -88 -133 -27 -47 -184 -301
-194 -312 -5 -7 -10 -15 -10 -19 0 -3 -22 -44 -50 -91 -27 -47 -50 -86 -50
-88 0 -2 -21 -41 -48 -87 -26 -46 -54 -96 -62 -113 -8 -16 -17 -32 -20 -35 -3
-3 -15 -25 -27 -50 -37 -74 -81 -154 -93 -167 -6 -7 -8 -13 -5 -13 3 0 -5 -19
-18 -42 -14 -24 -61 -113 -105 -198 -130 -251 -146 -280 -156 -280 -12 0 -240
113 -247 123 -3 5 -10 9 -15 9 -10 0 -44 13 -89 32 -80 35 -109 47 -225 89
-69 25 -172 59 -230 77 -58 17 -116 35 -130 40 -14 5 -37 12 -52 14 -15 3 -31
7 -36 10 -5 3 -19 7 -33 10 -13 2 -69 16 -124 29 -55 14 -113 29 -130 33 -16
4 -39 9 -50 11 -11 1 -40 7 -65 12 -25 6 -63 13 -85 17 -22 4 -44 8 -50 10
-27 7 -261 42 -325 49 -30 3 -66 8 -80 10 -14 2 -61 7 -105 10 -44 4 -93 8
-110 11 -222 28 -865 22 -1150 -11 -22 -2 -67 -7 -100 -10 -58 -6 -349 -49
-410 -60 -16 -4 -93 -20 -170 -36 -77 -16 -149 -31 -160 -33 -46 -10 -337 -88
-415 -112 -47 -14 -98 -29 -115 -34 -16 -4 -93 -31 -170 -60 -77 -28 -151 -55
-165 -60 -14 -4 -72 -28 -130 -54 -57 -25 -110 -46 -117 -46 -7 0 -13 -4 -13
-10 0 -5 -6 -10 -13 -10 -16 0 -209 -99 -327 -168 -251 -147 -513 -348 -664
-510 -28 -31 -58 -62 -66 -71 -59 -63 -177 -230 -210 -296 -8 -17 -17 -32 -20
-35 -5 -5 -27 -51 -52 -110 -28 -64 -67 -204 -81 -285 -16 -94 -20 -328 -6
-400 5 -27 12 -66 15 -85 10 -59 74 -241 111 -315 46 -90 112 -187 175 -256
16 -16 28 -34 28 -39 0 -6 4 -10 9 -10 13 0 80 -67 75 -74 -2 -3 -1 -4 2 -1 4
2 37 -19 74 -48 161 -125 408 -238 655 -302 17 -5 35 -9 40 -11 32 -8 310 -54
360 -59 239 -23 621 -24 790 0 17 2 55 6 85 10 202 21 455 70 652 126 60 16
116 32 125 34 48 9 343 112 448 156 17 6 35 13 40 14 6 2 33 13 60 25 28 12
66 29 85 37 71 30 441 216 502 252 35 21 102 61 151 90 48 28 92 49 97 46 6
-4 9 -2 8 3 -2 8 95 82 107 82 7 0 199 133 257 177 31 24 61 43 66 43 6 0 12
3 14 8 2 4 41 36 88 72 79 60 253 198 310 246 141 121 203 174 250 217 136
123 280 260 372 354 56 56 105 100 110 97 5 -3 7 -1 6 4 -5 15 92 113 104 106
7 -4 8 -2 4 5 -4 6 8 27 31 49 21 21 60 62 86 91 26 30 49 52 51 50 2 -2 -11
-33 -28 -69 -17 -36 -44 -96 -60 -135 -16 -38 -37 -88 -47 -110 -29 -65 -120
-295 -125 -315 0 -3 -6 -18 -12 -33 -24 -56 -82 -245 -113 -361 -33 -127 -34
-131 -48 -216 -21 -118 -23 -138 -26 -240 -6 -192 37 -340 125 -427 40 -41
141 -99 185 -107 80 -15 120 -18 190 -18 96 1 94 1 301 47 12 3 38 12 58 20
20 8 37 15 38 14 9 -2 270 111 278 122 3 3 37 23 75 43 39 21 84 46 100 57 17
10 37 22 45 26 8 3 17 9 20 13 3 3 48 35 100 70 222 149 452 340 733 610 60
58 113 107 118 108 5 2 9 8 9 13 0 5 18 29 41 52 38 39 135 170 168 228 28 48
72 141 69 144 -2 2 -44 -35 -94 -83 -50 -48 -123 -116 -163 -152 -40 -36 -90
-81 -111 -100 -21 -19 -51 -46 -66 -60 -82 -71 -180 -156 -190 -165 -6 -5 -33
-28 -60 -50 -26 -22 -67 -56 -89 -75 -23 -19 -56 -46 -75 -60 -18 -14 -42 -33
-54 -42 -11 -10 -26 -21 -31 -25 -6 -5 -32 -25 -58 -46 -26 -21 -52 -35 -57
-32 -6 4 -9 1 -8 -5 3 -11 -121 -107 -169 -132 -13 -6 -23 -15 -23 -20 0 -4
-4 -8 -10 -8 -5 0 -31 -15 -57 -34 -27 -18 -68 -45 -93 -59 -25 -14 -81 -45
-124 -71 -44 -25 -83 -43 -87 -41 -4 3 -9 1 -11 -4 -9 -23 -256 -112 -368
-132 -236 -41 -385 22 -441 187 -36 107 -30 307 15 531 27 130 154 540 201
648 7 17 27 66 44 110 25 68 94 235 133 325 6 14 12 27 13 30 1 3 12 28 25 55
13 28 24 52 25 55 6 18 29 68 59 132 20 40 36 79 36 85 0 7 5 13 10 13 6 0 10
6 10 14 0 7 6 26 14 40 l13 26 54 -36 c30 -21 56 -41 57 -46 2 -4 9 -8 15 -8
7 0 24 -10 39 -23 15 -13 39 -32 54 -43 51 -36 99 -79 193 -169 51 -49 99 -96
107 -103 8 -7 14 -10 14 -5 -1 16 -87 176 -112 208 -5 6 -25 33 -46 60 -36 49
-153 177 -200 219 -13 12 -37 33 -53 47 l-30 27 31 46 c17 25 36 46 41 46 5 0
9 6 9 14 0 8 3 16 8 18 4 2 27 30 51 63 25 33 48 62 51 65 4 3 12 15 19 28 7
12 17 20 23 16 6 -4 8 -3 5 3 -4 6 6 25 22 42 16 17 27 31 24 31 -2 0 2 6 9
14 7 7 46 57 87 110 41 53 78 96 83 96 4 0 7 4 6 9 -2 5 8 21 22 37 14 16 65
83 114 149 49 66 93 122 98 123 4 2 8 8 8 14 0 16 37 58 45 50 3 -4 5 -2 3 3
-2 8 43 81 74 120 42 52 223 324 274 413 20 34 40 62 45 62 6 0 8 4 5 8 -3 5
5 24 18 43 69 102 204 376 242 489 37 108 41 220 9 244 -28 21 -83 18 -130 -7z
m-3725 -1820 c25 -3 83 -8 130 -11 132 -11 267 -25 305 -32 11 -2 40 -6 65 -9
25 -3 54 -7 65 -9 11 -2 43 -7 70 -10 60 -8 304 -57 430 -86 50 -11 99 -23
110 -25 99 -19 493 -145 625 -199 157 -66 407 -192 398 -201 -2 -2 -34 -38
-73 -81 -110 -121 -456 -464 -468 -464 -3 0 -18 -12 -34 -28 -15 -15 -50 -45
-77 -67 -27 -22 -60 -50 -74 -62 -13 -13 -30 -20 -36 -16 -6 3 -8 3 -4 -2 4
-4 -36 -41 -90 -82 -53 -41 -104 -79 -112 -86 -37 -30 -301 -212 -315 -218 -5
-2 -55 -33 -111 -69 -117 -76 -104 -68 -264 -163 -69 -41 -152 -89 -185 -107
-33 -18 -76 -42 -95 -53 -41 -24 -292 -153 -400 -207 -118 -59 -299 -142 -375
-172 -27 -11 -56 -24 -62 -30 -7 -6 -13 -7 -13 -4 0 4 -12 0 -27 -8 -63 -34
-487 -186 -633 -227 -25 -7 -49 -14 -55 -15 -179 -51 -501 -123 -622 -140 -27
-3 -55 -7 -63 -9 -33 -6 -98 -15 -151 -20 -31 -3 -65 -7 -75 -9 -21 -4 -161
-17 -244 -22 -74 -5 -477 -5 -515 0 -16 2 -59 7 -95 10 -137 15 -323 52 -410
82 -25 9 -49 17 -55 18 -55 9 -261 108 -349 167 -73 50 -105 79 -199 183 -42
47 -112 192 -133 276 -26 103 -26 346 0 440 10 36 19 70 20 75 7 37 89 214
131 283 37 61 53 83 130 177 84 102 147 165 158 158 6 -3 7 -2 4 3 -6 11 115
124 132 124 6 0 11 4 11 8 0 4 24 26 53 47 28 22 54 42 57 45 7 7 180 122 205
136 11 7 69 40 130 74 60 34 134 73 165 87 177 82 204 93 217 89 8 -3 12 -2 9
3 -5 8 10 16 64 36 3 1 19 7 35 14 115 46 395 142 395 135 0 -3 8 0 18 5 58
31 553 151 772 187 14 3 48 9 75 14 28 5 70 12 95 15 25 3 61 7 80 10 34 4 56
7 165 20 78 8 141 13 260 20 61 4 112 8 113 10 5 5 666 -3 722 -8z"/>
<path d="M10103 8740 c-43 -10 -96 -51 -131 -103 -16 -23 -77 -157 -136 -297
-60 -140 -111 -257 -115 -260 -3 -3 -7 -12 -9 -20 -3 -16 -165 -401 -207 -494
-14 -30 -25 -62 -25 -70 0 -9 -4 -16 -10 -16 -5 0 -10 -6 -10 -12 0 -10 -133
-327 -293 -698 -5 -14 -11 -27 -12 -30 -1 -3 -6 -16 -12 -30 -6 -14 -23 -54
-37 -90 -15 -36 -35 -83 -45 -105 -10 -22 -31 -69 -46 -105 -15 -36 -31 -74
-36 -85 -5 -11 -63 -148 -130 -305 -66 -157 -126 -298 -133 -315 -28 -65 -38
-90 -35 -90 2 0 -4 -13 -14 -30 -16 -30 -66 -145 -72 -165 0 -3 -11 -27 -23
-54 -12 -27 -22 -50 -22 -52 0 -2 -9 -26 -21 -52 -23 -51 -25 -57 -64 -152
-15 -36 -30 -72 -34 -80 -4 -8 -43 -98 -86 -200 -44 -102 -82 -187 -85 -190
-3 -3 -6 -13 -8 -22 -1 -9 -14 -43 -29 -75 -14 -32 -40 -94 -58 -138 -18 -44
-42 -100 -53 -125 -11 -25 -40 -90 -63 -145 -23 -55 -49 -116 -57 -135 -9 -19
-16 -37 -17 -40 -2 -7 -34 -80 -45 -105 -31 -68 -60 -139 -57 -141 2 -2 70
133 152 301 82 167 153 301 158 298 6 -3 7 -1 4 5 -4 5 4 32 17 59 50 102 379
770 399 813 12 25 26 48 30 51 5 3 8 10 8 15 0 5 51 113 113 239 268 542 446
908 446 916 0 5 5 9 10 9 6 0 10 5 10 12 0 6 55 122 121 257 67 135 193 392
281 571 87 179 168 343 180 365 30 56 27 51 119 240 45 94 87 173 93 177 6 4
8 8 4 8 -6 0 94 212 176 370 53 104 61 251 14 290 -33 28 -68 38 -105 30z m7
-236 c0 -41 -11 -67 -72 -167 -27 -43 -48 -81 -48 -83 0 -3 -13 -25 -30 -49
-16 -24 -30 -46 -30 -48 0 -3 -20 -38 -45 -78 -25 -40 -45 -70 -45 -66 0 4 13
42 29 85 16 42 32 88 36 102 4 14 13 39 20 55 8 17 25 65 39 107 30 94 46 123
86 166 25 28 33 32 45 22 8 -7 15 -27 15 -46z"/>
<path d="M570 2570 c-5 -19 -8 -41 -14 -85 -3 -27 -10 -75 -15 -105 -10 -55
-14 -78 -25 -155 -4 -22 -11 -69 -17 -105 -5 -36 -11 -79 -14 -97 -2 -18 -6
-40 -9 -50 -3 -10 -8 -38 -11 -63 -2 -25 -7 -56 -9 -70 -3 -14 -16 -99 -31
-190 -14 -91 -28 -176 -30 -190 -30 -187 -32 -178 32 -174 21 1 50 3 64 3 14
1 26 7 26 14 1 23 15 142 18 147 1 3 6 30 9 61 4 31 9 67 11 80 3 13 7 41 10
64 9 68 14 108 20 155 3 25 8 52 10 60 2 8 6 38 10 65 10 85 26 179 31 184 2
2 4 -1 4 -7 0 -6 16 -46 36 -89 20 -43 57 -123 81 -178 25 -55 83 -183 130
-285 76 -165 103 -224 108 -240 1 -3 11 -24 22 -48 l20 -43 16 33 c42 89 97
210 97 212 0 2 26 59 58 127 32 68 71 152 87 186 16 34 32 60 37 57 4 -3 5 1
3 8 -3 8 7 40 23 73 16 33 42 88 57 123 33 75 41 69 51 -38 3 -41 8 -78 10
-81 5 -8 18 -129 19 -166 0 -18 3 -33 7 -33 4 0 6 -8 6 -17 -1 -10 2 -34 5
-53 7 -42 29 -205 42 -314 3 -27 8 -52 10 -55 2 -3 34 -6 71 -5 76 1 75 -1 60
82 -4 23 -9 52 -10 65 -2 12 -6 42 -10 67 -9 53 -13 79 -21 140 -3 25 -10 70
-15 100 -9 56 -14 86 -25 175 -4 28 -13 88 -20 135 -8 47 -17 108 -20 135 -4
28 -8 61 -10 75 -3 14 -7 43 -10 65 -4 22 -8 51 -10 65 -3 14 -9 58 -15 99 -6
41 -12 77 -15 79 -2 2 -13 -18 -26 -45 -12 -26 -43 -95 -70 -151 -27 -57 -49
-105 -49 -107 0 -2 -25 -55 -55 -119 -30 -63 -55 -120 -55 -126 0 -5 -4 -10
-10 -10 -5 0 -10 -6 -10 -13 0 -7 -8 -31 -19 -53 -10 -21 -31 -66 -46 -99 -84
-182 -136 -288 -139 -284 -2 2 -22 45 -44 94 -22 50 -56 126 -77 170 -20 44
-57 125 -82 180 -25 55 -55 123 -68 150 -13 28 -32 70 -43 95 -80 180 -151
328 -152 320z"/>
<path d="M9285 2498 c-15 -35 -36 -81 -46 -103 -95 -214 -179 -406 -179 -410
0 -2 -17 -41 -39 -87 -21 -46 -44 -100 -51 -120 -8 -20 -18 -34 -23 -31 -6 3
-7 1 -4 -4 5 -9 -122 -314 -178 -425 -7 -16 -10 -28 -7 -29 46 -6 146 -2 152
6 5 6 17 33 28 60 11 28 30 73 43 100 12 28 23 52 23 55 1 3 12 31 26 63 l24
57 257 0 257 0 12 -32 c7 -18 20 -51 30 -73 9 -22 36 -85 59 -140 l42 -100 75
0 c40 0 74 4 74 8 0 8 -36 93 -86 205 -13 29 -24 55 -24 57 0 2 -12 30 -26 62
-66 150 -114 261 -114 266 0 3 -13 34 -29 69 -16 35 -41 92 -56 128 -15 36
-35 83 -45 105 -10 22 -48 112 -85 200 -37 88 -71 164 -75 168 -4 4 -19 -20
-35 -55z m70 -363 c20 -49 43 -103 50 -120 11 -24 82 -193 102 -242 4 -10 -38
-13 -189 -13 -107 0 -197 3 -200 6 -6 5 2 25 52 139 10 22 44 101 75 175 61
143 65 153 70 148 1 -2 19 -43 40 -93z"/>
<path d="M3229 2540 c-3 -34 -4 -1236 -2 -1245 3 -9 38 -10 124 -6 14 1 16 48
15 466 l-1 466 74 -78 c40 -43 110 -116 155 -163 44 -46 80 -88 78 -92 -1 -4
3 -8 9 -8 14 0 49 -39 49 -53 0 -6 3 -8 6 -5 3 3 25 -15 49 -41 24 -25 67 -71
97 -102 29 -30 118 -124 198 -208 180 -189 192 -202 216 -223 19 -16 19 -7 18
605 -1 342 -2 629 -3 638 -1 13 -13 16 -68 15 l-68 -1 -1 -458 c0 -251 -3
-459 -6 -462 -3 -3 -65 58 -139 136 -74 77 -163 171 -199 208 -36 37 -126 131
-200 210 -285 300 -400 415 -401 401z"/>
<path d="M6588 2513 c-41 -7 -105 -26 -142 -43 -37 -16 -73 -27 -78 -23 -7 3
-8 1 -4 -5 4 -6 -8 -21 -27 -34 -45 -30 -127 -106 -127 -117 0 -5 -7 -14 -16
-22 -17 -14 -61 -95 -81 -149 -33 -91 -48 -246 -32 -320 4 -19 11 -50 14 -68
8 -45 56 -150 93 -205 90 -130 236 -222 402 -254 96 -18 262 -3 344 31 20 8
39 15 42 15 17 -1 126 71 171 114 70 66 160 200 151 227 -1 3 4 16 12 29 16
31 38 174 34 226 -11 144 -48 260 -114 349 -28 38 -135 141 -165 159 -147 88
-309 119 -477 90z m172 -124 c58 -4 161 -41 221 -79 125 -81 213 -242 218
-400 3 -95 -13 -161 -67 -269 -21 -42 -121 -151 -139 -151 -7 0 -13 -4 -13 -8
0 -27 -192 -88 -270 -86 -98 3 -217 39 -274 84 -52 41 -115 103 -111 110 3 4
-2 11 -10 14 -16 6 -67 108 -82 166 -15 53 -16 180 -2 236 19 81 70 175 130
236 30 32 61 58 67 58 7 0 12 5 12 11 0 5 5 7 10 4 6 -3 10 -2 10 3 0 11 89
51 129 59 58 11 116 19 121 17 3 -1 25 -3 50 -5z"/>
<path d="M7999 2508 c-41 -10 -75 -23 -77 -28 -2 -6 -10 -10 -17 -10 -27 0
-105 -101 -122 -159 -44 -153 5 -277 143 -357 27 -15 52 -32 55 -37 3 -5 8 -8
10 -7 13 5 239 -101 239 -112 0 -4 6 -8 13 -8 18 0 58 -52 73 -96 14 -41 10
-129 -7 -150 -5 -6 -7 -13 -4 -16 12 -11 -78 -97 -117 -113 -49 -19 -149 -22
-192 -6 -76 30 -142 113 -148 189 -2 19 -11 19 -93 -3 -44 -11 -50 -15 -47
-36 5 -33 58 -141 82 -166 11 -12 20 -27 20 -33 0 -5 3 -9 8 -8 4 2 23 -9 42
-24 70 -52 200 -77 305 -57 67 13 143 49 189 93 22 20 44 36 50 36 5 0 6 3 3
7 -4 3 -1 13 7 22 8 9 23 43 35 76 26 78 24 211 -4 270 -35 73 -151 168 -245
200 -55 19 -174 77 -215 105 -70 48 -81 73 -76 165 1 28 52 105 68 105 7 0 13
4 13 10 0 13 77 32 128 32 57 -2 122 -32 152 -71 47 -61 50 -64 69 -48 9 8 31
22 49 31 17 9 32 22 32 30 0 22 -58 94 -100 125 -21 15 -36 32 -32 36 4 5 1 5
-6 1 -7 -4 -18 -3 -25 2 -36 28 -166 34 -258 10z"/>
<path d="M2166 2500 c-5 -13 1 -1197 6 -1205 4 -6 127 -10 315 -9 l308 0 3 68
3 67 -53 -1 c-29 -1 -141 -1 -248 -1 l-195 1 0 227 c0 169 3 229 12 233 7 3
114 5 238 4 252 0 232 -8 233 82 l1 50 -227 -1 c-125 0 -234 2 -242 6 -13 6
-15 33 -13 171 1 89 2 168 2 173 1 6 89 10 246 9 l245 0 0 66 0 67 -316 -1
c-173 0 -316 -3 -318 -6z"/>
<path d="M4809 2501 c-1 -3 -2 -277 -2 -608 -2 -530 0 -603 13 -604 77 -6 373
2 418 12 154 31 289 119 370 241 13 21 29 35 35 31 6 -3 7 -1 3 5 -3 6 2 30
13 54 19 42 31 73 37 93 20 74 22 233 4 305 -6 25 -12 52 -14 60 -25 99 -100
206 -208 296 -48 40 -155 85 -263 111 -30 7 -405 11 -406 4z m403 -146 c89
-23 174 -70 234 -132 30 -31 54 -60 54 -65 0 -15 4 -23 17 -36 22 -22 45 -113
50 -199 16 -247 -140 -452 -373 -493 -38 -6 -109 -10 -159 -8 l-89 3 -1 460
c0 253 1 467 3 476 3 13 19 15 105 12 56 -2 128 -10 159 -18z"/>
</g>
</svg>
